# xmcd CD database file
#
# Track frame offsets:
#	150
#	13832
#	31162
#	46885
#	65795
#	78636
#	96787
#	115976
#	134493
#	147737
#	167587
#	186618
#
# Disc length: 3038 seconds
#
# Revision: 0
# Processed by: cddbd v1.5.1PL0 Copyright (c) Steve Scherf et al.
# Submitted via: CDex 1.40Release
#
DISCID=b30bdc0c
DTITLE=Josh Langston - Walkin' Away
DYEAR=2005
DGENRE=Country
TTITLE0=Dreams of Mine
TTITLE1=Stuck in Hell
TTITLE2=Walkin' Away
TTITLE3=On a Bus
TTITLE4=Ramblin' Man
TTITLE5=Unopened Doors
TTITLE6=Inmate 1928
TTITLE7=Tour Bus Lament
TTITLE8=Too Far Gone
TTITLE9=Just Cause
TTITLE10=Her Eyes
TTITLE11=You Should
EXTD=YEAR: 2005 ID3G: 2
EXTT0=
EXTT1=
EXTT2=
EXTT3=
EXTT4=
EXTT5=
EXTT6=
EXTT7=
EXTT8=
EXTT9=
EXTT10=
EXTT11=
PLAYORDER=
